<svg xmlns="http://www.w3.org/2000/svg" version="1.1" xmlns:xlink="http://www.w3.org/1999/xlink" xmlns:svgjs="http://svgjs.dev/svgjs" width="1500" height="506" viewBox="0 0 1500 506"><g transform="matrix(1,0,0,1,-3.877339227038078,1.792439828752947)"><svg viewBox="0 0 154 52" data-background-color="#ffffff" preserveAspectRatio="xMidYMid meet" height="506" width="1500" xmlns="http://www.w3.org/2000/svg" xmlns:xlink="http://www.w3.org/1999/xlink"><g id="tight-bounds" transform="matrix(1,0,0,1,0.3980734939759145,0.15244999999998754)"><svg viewBox="0 0 153.2038530120482 51.695100000000004" height="51.695100000000004" width="153.2038530120482"><g><svg viewBox="0 0 153.2038530120482 51.695100000000004" height="51.695100000000004" width="153.2038530120482"><g><svg viewBox="0 0 153.2038530120482 51.695100000000004" height="51.695100000000004" width="153.2038530120482"><g id="textblocktransform"><svg viewBox="0 0 153.2038530120482 51.695100000000004" height="51.695100000000004" width="153.2038530120482" id="textblock"><g><svg viewBox="0 0 153.2038530120482 51.695100000000004" height="51.695100000000004" width="153.2038530120482"><g><svg><g></g><g></g></svg></g><g><svg><g><svg></svg></g><g></g></svg></g><g id="text-0"><svg viewBox="0 0 153.2038530120482 51.695100000000004" height="51.695100000000004" width="153.2038530120482"><g transform="matrix(1,0,0,1,0,0)"><svg width="78.7157" viewBox="3.78 -31.95 48.64 31.95" height="51.695100000000004" data-palette-color="#bb84e8"><path d="M14.48 0L6.58 0 6.58-3.5 14.33-3.5Q18.57-3.5 20.71-5.81 22.85-8.13 22.85-12.43L22.85-12.43 22.85-19.55Q22.85-23.88 20.71-26.18 18.57-28.48 14.33-28.48L14.33-28.48 6.55-28.48 6.55-31.95 14.48-31.95Q20.68-31.95 23.85-28.76 27.03-25.58 27.03-19.58L27.03-19.58 27.03-12.4Q27.03-6.43 23.85-3.21 20.68 0 14.48 0L14.48 0ZM7.88 0L3.78 0 3.78-31.95 7.88-31.95 7.88 0ZM37.5-31.95L37.5 0 33.35 0 33.35-31.95 37.5-31.95ZM35.57 0L35.57-3.53 52.42-3.53 52.42 0 35.57 0Z" opacity="1" transform="matrix(1,0,0,1,0,0)" fill="#bb84e8" class="wordmark-text-0" data-fill-palette-color="primary"></path></svg></g><g><svg version="1.1" xmlns="http://www.w3.org/2000/svg" xmlns:xlink="http://www.w3.org/1999/xlink" x="90.92060000000001" y="0" viewBox="0 0 100 83" enable-background="new 0 0 100 83" xml:space="preserve" height="51.695100000000004" width="62.2832530120482" class="icon-dxe-0" data-fill-palette-color="accent" id="dxe-0"><path d="M99.981 2.312A2.49 2.49 0 0 0 97.5 0H2.5A2.49 2.49 0 0 0 0.019 2.312L0 66.5A2.5 2.5 0 0 0 2.5 69H97.5A2.5 2.5 0 0 0 100 66.5zM96 57H4V4H96z" fill="#b19dd0" data-fill-palette-color="accent"></path><path d="M66 81C62 80 61 77 61 73V72H39V73C39 77 38 80 34 81 33.03 81.242 33 83 34 83H66C67 83 66.97 81.242 66 81" fill="#b19dd0" data-fill-palette-color="accent"></path></svg></g></svg></g></svg></g></svg></g></svg></g></svg></g><defs></defs></svg><rect width="153.2038530120482" height="51.695100000000004" fill="none" stroke="none" visibility="hidden"></rect></g></svg></g></svg>